<?xml version="1.0" encoding="UTF-8"?>
<!DOCTYPE svg PUBLIC "-//W3C//DTD SVG 1.1//EN" "http://www.w3.org/Graphics/SVG/1.1/DTD/svg11.dtd">
<svg version="1.2" width="250.19mm" height="63.5mm" viewBox="0 0 25019 6350" preserveAspectRatio="xMidYMid" fill-rule="evenodd" stroke-width="28.222" stroke-linejoin="round" xmlns="http://www.w3.org/2000/svg" xmlns:ooo="http://xml.openoffice.org/svg/export" xmlns:xlink="http://www.w3.org/1999/xlink" xmlns:presentation="http://sun.com/xmlns/staroffice/presentation" xmlns:smil="http://www.w3.org/2001/SMIL20/" xmlns:anim="urn:oasis:names:tc:opendocument:xmlns:animation:1.0" xml:space="preserve">
 <defs class="ClipPathGroup">
  <clipPath id="presentation_clip_path" clipPathUnits="userSpaceOnUse">
   <rect x="0" y="0" width="25019" height="6350"/>
  </clipPath>
 </defs>
 <defs class="TextShapeIndex">
  <g ooo:slide="id1" ooo:id-list="id3 id4 id5 id6 id7 id8 id9 id10 id11 id12 id13 id14 id15 id16 id17 id18 id19 id20"/>
 </defs>
 <defs class="EmbeddedBulletChars">
  <g id="bullet-char-template(57356)" transform="scale(0.00048828125,-0.00048828125)">
   <path d="M 580,1141 L 1163,571 580,0 -4,571 580,1141 Z"/>
  </g>
  <g id="bullet-char-template(57354)" transform="scale(0.00048828125,-0.00048828125)">
   <path d="M 8,1128 L 1137,1128 1137,0 8,0 8,1128 Z"/>
  </g>
  <g id="bullet-char-template(10146)" transform="scale(0.00048828125,-0.00048828125)">
   <path d="M 174,0 L 602,739 174,1481 1456,739 174,0 Z M 1358,739 L 309,1346 659,739 1358,739 Z"/>
  </g>
  <g id="bullet-char-template(10132)" transform="scale(0.00048828125,-0.00048828125)">
   <path d="M 2015,739 L 1276,0 717,0 1260,543 174,543 174,936 1260,936 717,1481 1274,1481 2015,739 Z"/>
  </g>
  <g id="bullet-char-template(10007)" transform="scale(0.00048828125,-0.00048828125)">
   <path d="M 0,-2 C -7,14 -16,27 -25,37 L 356,567 C 262,823 215,952 215,954 215,979 228,992 255,992 264,992 276,990 289,987 310,991 331,999 354,1012 L 381,999 492,748 772,1049 836,1024 860,1049 C 881,1039 901,1025 922,1006 886,937 835,863 770,784 769,783 710,716 594,584 L 774,223 C 774,196 753,168 711,139 L 727,119 C 717,90 699,76 672,76 641,76 570,178 457,381 L 164,-76 C 142,-110 111,-127 72,-127 30,-127 9,-110 8,-76 1,-67 -2,-52 -2,-32 -2,-23 -1,-13 0,-2 Z"/>
  </g>
  <g id="bullet-char-template(10004)" transform="scale(0.00048828125,-0.00048828125)">
   <path d="M 285,-33 C 182,-33 111,30 74,156 52,228 41,333 41,471 41,549 55,616 82,672 116,743 169,778 240,778 293,778 328,747 346,684 L 369,508 C 377,444 397,411 428,410 L 1163,1116 C 1174,1127 1196,1133 1229,1133 1271,1133 1292,1118 1292,1087 L 1292,965 C 1292,929 1282,901 1262,881 L 442,47 C 390,-6 338,-33 285,-33 Z"/>
  </g>
  <g id="bullet-char-template(9679)" transform="scale(0.00048828125,-0.00048828125)">
   <path d="M 813,0 C 632,0 489,54 383,161 276,268 223,411 223,592 223,773 276,916 383,1023 489,1130 632,1184 813,1184 992,1184 1136,1130 1245,1023 1353,916 1407,772 1407,592 1407,412 1353,268 1245,161 1136,54 992,0 813,0 Z"/>
  </g>
  <g id="bullet-char-template(8226)" transform="scale(0.00048828125,-0.00048828125)">
   <path d="M 346,457 C 273,457 209,483 155,535 101,586 74,649 74,723 74,796 101,859 155,911 209,963 273,989 346,989 419,989 480,963 531,910 582,859 608,796 608,723 608,648 583,586 532,535 482,483 420,457 346,457 Z"/>
  </g>
  <g id="bullet-char-template(8211)" transform="scale(0.00048828125,-0.00048828125)">
   <path d="M -4,459 L 1135,459 1135,606 -4,606 -4,459 Z"/>
  </g>
 </defs>
 <defs class="TextEmbeddedBitmaps"/>
 <g>
  <g id="id2" class="Master_Slide">
   <g id="bg-id2" class="Background"/>
   <g id="bo-id2" class="BackgroundObjects"/>
  </g>
 </g>
 <g class="SlideGroup">
  <g>
   <g id="id1" class="Slide" clip-path="url(#presentation_clip_path)">
    <g class="Page">
     <g class="com.sun.star.drawing.ClosedBezierShape">
      <g id="id3">
       <rect class="BoundingBox" stroke="none" fill="none" x="7930" y="2143" width="17090" height="2175"/>
       <path fill="rgb(0,0,0)" stroke="none" d="M 8349,3952 L 9238,3952 9238,4287 7931,4287 7931,2254 8349,2254 8349,3952 Z M 10328,4287 C 10305,4245 10294,4202 10287,4152 L 10287,4152 C 10251,4195 10215,4224 10168,4251 10089,4296 10013,4317 9923,4317 9918,4317 9911,4317 9907,4317 9758,4317 9637,4274 9538,4188 L 9538,4188 C 9499,4155 9472,4123 9448,4078 9409,4013 9394,3948 9394,3871 9394,3869 9394,3867 9394,3864 9394,3705 9452,3581 9571,3496 9691,3410 9860,3365 10085,3365 L 10271,3365 10271,3280 C 10271,3210 10253,3154 10217,3113 10181,3070 10125,3050 10046,3050 9979,3050 9927,3066 9889,3097 9848,3131 9830,3176 9830,3232 L 9425,3232 C 9425,3145 9452,3064 9506,2989 L 9506,2989 C 9553,2929 9601,2886 9666,2848 9691,2834 9711,2825 9736,2814 L 9736,2814 C 9842,2769 9941,2751 10055,2751 10060,2751 10064,2751 10069,2751 10253,2751 10402,2798 10512,2890 10620,2985 10674,3115 10674,3284 L 10674,3941 C 10676,4083 10697,4193 10735,4267 L 10735,4287 10328,4287 Z M 9995,4008 C 10053,4008 10109,3995 10159,3968 10208,3941 10247,3905 10269,3860 L 10269,3601 10118,3601 C 9918,3601 9810,3671 9797,3810 L 9797,3835 C 9797,3885 9815,3925 9848,3959 9860,3968 9869,3975 9880,3981 9914,3999 9945,4008 9983,4008 9988,4008 9990,4008 9995,4008 Z M 11833,3156 C 11779,3149 11730,3145 11689,3145 11536,3145 11435,3196 11390,3300 L 11390,4287 10985,4287 10985,2778 11367,2778 11379,2958 C 11460,2818 11570,2749 11714,2749 11759,2749 11802,2755 11840,2769 L 11833,3156 Z M 12862,4287 C 12841,4245 12828,4202 12821,4152 L 12821,4152 C 12785,4195 12749,4224 12702,4251 12623,4296 12547,4317 12459,4317 12452,4317 12448,4317 12441,4317 12292,4317 12171,4274 12072,4188 L 12072,4188 C 12034,4155 12007,4123 11982,4078 11943,4013 11925,3948 11925,3871 11925,3869 11925,3867 11925,3864 11925,3705 11986,3581 12103,3496 12223,3410 12396,3365 12619,3365 L 12805,3365 12805,3280 C 12805,3210 12787,3154 12751,3113 12715,3070 12659,3050 12580,3050 12513,3050 12461,3066 12423,3097 12382,3131 12364,3176 12364,3232 L 11961,3232 C 11961,3145 11989,3064 12043,2989 L 12043,2989 C 12088,2929 12135,2886 12202,2848 12225,2834 12245,2825 12270,2814 L 12270,2814 C 12376,2769 12475,2751 12589,2751 12594,2751 12598,2751 12603,2751 12790,2751 12936,2798 13046,2890 13154,2985 13211,3115 13211,3284 L 13211,3941 C 13211,4083 13231,4193 13269,4267 L 13269,4287 12862,4287 Z M 12529,4008 C 12587,4008 12643,3995 12693,3968 12742,3941 12781,3905 12805,3860 L 12805,3601 12655,3601 C 12452,3601 12344,3671 12331,3810 L 12331,3835 C 12331,3885 12349,3925 12382,3959 12394,3968 12403,3975 12414,3981 12448,3999 12479,4008 12517,4008 12522,4008 12524,4008 12529,4008 Z M 14063,3795 L 14345,2778 14766,2778 14257,4287 13870,4287 13361,2778 13782,2778 14063,3795 Z M 16895,4287 L 16490,4287 16490,2144 16895,2144 16895,4287 Z M 19271,3788 C 19271,3675 19233,3588 19152,3520 19073,3455 18929,3392 18720,3334 18508,3275 18355,3210 18258,3140 L 18258,3140 C 18195,3100 18150,3052 18114,2987 18072,2913 18051,2843 18051,2758 18051,2755 18051,2753 18051,2753 18051,2598 18117,2470 18243,2373 18371,2276 18535,2227 18736,2227 18871,2227 18990,2254 19096,2306 19114,2315 19129,2321 19147,2330 19237,2384 19303,2450 19357,2542 19408,2632 19433,2722 19433,2827 19433,2830 19433,2832 19433,2834 L 19260,2834 C 19260,2697 19213,2585 19116,2501 19021,2416 18893,2373 18736,2373 18578,2373 18456,2409 18364,2479 18324,2506 18294,2540 18270,2582 18238,2634 18225,2684 18225,2744 18225,2746 18225,2746 18225,2749 18225,2852 18267,2938 18348,3003 18432,3068 18565,3124 18747,3174 18898,3212 19024,3257 19161,3329 L 19161,3329 C 19168,3334 19172,3336 19179,3338 19260,3385 19321,3444 19375,3523 19422,3597 19444,3684 19444,3786 19444,3945 19381,4074 19253,4170 19125,4267 18956,4317 18747,4317 18605,4317 18472,4292 18353,4240 18324,4229 18299,4215 18274,4202 18193,4155 18135,4101 18081,4024 L 18081,4024 C 18074,4015 18069,4006 18063,3995 18011,3907 17988,3819 17988,3716 17988,3714 17988,3711 17988,3707 L 18159,3707 C 18159,3851 18213,3963 18319,4047 18427,4130 18569,4170 18747,4170 18907,4170 19033,4137 19129,4067 19172,4038 19201,4004 19228,3959 19258,3907 19271,3855 19271,3797 19271,3795 19271,3792 19271,3788 Z M 20333,4175 C 20450,4175 20547,4143 20626,4078 L 20626,4078 C 20662,4049 20685,4020 20707,3981 20736,3932 20752,3880 20754,3822 L 20914,3822 C 20912,3900 20892,3968 20851,4035 20844,4049 20838,4060 20829,4074 L 20829,4074 C 20779,4141 20727,4191 20655,4231 20642,4240 20630,4245 20617,4251 20529,4294 20435,4317 20333,4317 20135,4317 19978,4247 19863,4110 19746,3972 19690,3786 19690,3554 L 19690,3505 C 19690,3356 19715,3223 19769,3109 19778,3086 19787,3068 19798,3048 19847,2960 19908,2897 19991,2843 19998,2839 20003,2836 20009,2832 20108,2776 20205,2749 20320,2749 20324,2749 20329,2749 20333,2749 20498,2749 20635,2798 20743,2897 L 20743,2897 C 20784,2935 20815,2974 20842,3023 20892,3106 20914,3190 20914,3286 L 20754,3286 C 20752,3214 20736,3156 20700,3093 20680,3057 20657,3030 20626,3001 20603,2978 20581,2962 20554,2947 20489,2908 20423,2893 20347,2893 20342,2893 20338,2893 20333,2893 20183,2893 20066,2947 19982,3055 19899,3165 19856,3318 19856,3514 L 19856,3563 C 19856,3756 19899,3905 19982,4013 L 19982,4013 C 20016,4058 20054,4092 20104,4121 20171,4159 20237,4177 20313,4177 20320,4177 20327,4177 20333,4175 Z M 21157,3511 C 21157,3365 21184,3235 21240,3118 L 21240,3118 C 21249,3100 21256,3086 21267,3068 21321,2974 21387,2904 21479,2848 21486,2843 21490,2839 21497,2836 21598,2776 21699,2749 21819,2749 21821,2749 21826,2749 21828,2749 22030,2749 22192,2821 22316,2960 22442,3102 22505,3289 22505,3523 L 22505,3556 C 22505,3702 22476,3835 22420,3950 L 22420,3950 C 22413,3968 22404,3984 22395,4002 22336,4101 22264,4175 22163,4231 22064,4290 21965,4317 21848,4317 21844,4317 21837,4317 21832,4317 L 21832,4317 C 21826,4317 21819,4317 21812,4317 21697,4317 21598,4290 21499,4233 21438,4197 21391,4159 21344,4105 21220,3963 21157,3777 21157,3545 L 21157,3511 Z M 21324,3556 C 21324,3736 21371,3885 21465,4002 L 21465,4002 C 21501,4051 21542,4085 21596,4116 21666,4157 21738,4175 21821,4175 21823,4175 21828,4175 21832,4175 21983,4175 22105,4119 22199,4002 22291,3885 22339,3732 22339,3543 L 22339,3511 C 22339,3397 22316,3291 22273,3194 22267,3172 22258,3156 22246,3136 22206,3068 22159,3016 22093,2971 L 22093,2971 C 22084,2965 22078,2960 22066,2953 21994,2911 21922,2893 21837,2893 21835,2893 21832,2893 21828,2893 21681,2893 21560,2951 21465,3066 21371,3185 21324,3336 21324,3525 L 21324,3556 Z M 23822,4096 C 23720,4242 23558,4317 23340,4317 23178,4317 23057,4269 22973,4175 22888,4083 22845,3943 22843,3761 L 22843,2778 23009,2778 23009,3738 C 23009,4026 23126,4170 23358,4170 23601,4170 23754,4071 23817,3871 L 23817,2778 23986,2778 23986,4287 23824,4287 23822,4098 23822,4096 Z M 24679,2391 L 24679,2778 24992,2778 24992,2915 24679,2915 24679,3921 C 24679,4004 24695,4067 24724,4107 24756,4150 24805,4170 24875,4170 24904,4170 24949,4166 25012,4157 L 25019,4292 C 24974,4308 24915,4317 24839,4317 24726,4317 24641,4283 24589,4215 24537,4150 24513,4051 24513,3923 L 24513,2915 24234,2915 24234,2778 24513,2778 24513,2391 24679,2391 Z"/>
      </g>
     </g>
     <g class="com.sun.star.drawing.PolyPolygonShape">
      <g id="id4">
       <rect class="BoundingBox" stroke="none" fill="none" x="0" y="0" width="6355" height="6351"/>
       <g>
        <defs>
         <linearGradient id="gradient1" x1="3176" y1="0" x2="3176" y2="6350" gradientUnits="userSpaceOnUse">
          <stop offset="0" style="stop-color:rgb(241,207,136)"/>
          <stop offset="1" style="stop-color:rgb(246,90,90)"/>
         </linearGradient>
        </defs>
        <path style="fill:url(#gradient1)" d="M 0,3810 L 3178,5556 6353,3810 6353,4604 3178,6350 0,4604 0,3810 Z M 0,0 L 3178,1746 6353,0 6353,3016 3178,4762 0,3016 0,0 Z"/>
       </g>
      </g>
     </g>
     <g class="com.sun.star.drawing.ClosedBezierShape">
      <g id="id5">
       <rect class="BoundingBox" stroke="none" fill="none" x="12004" y="4671" width="380" height="443"/>
       <path fill="rgb(0,0,0)" stroke="none" d="M 12215,5112 C 12211,5112 12208,5112 12204,5112 12166,5112 12134,5104 12101,5085 12085,5076 12073,5067 12060,5054 L 12060,5054 C 12050,5043 12041,5032 12034,5018 12014,4983 12004,4948 12004,4908 12004,4903 12004,4900 12005,4896 12005,4826 12022,4771 12057,4731 L 12057,4731 C 12070,4716 12083,4705 12101,4695 12129,4679 12158,4671 12191,4671 12194,4671 12197,4671 12200,4671 L 12200,4671 C 12204,4671 12207,4671 12210,4671 12242,4671 12269,4679 12297,4694 12311,4703 12322,4711 12333,4722 L 12333,4722 C 12343,4733 12349,4742 12356,4754 12374,4785 12383,4816 12383,4852 12383,4856 12382,4859 12382,4863 L 12382,4912 12097,4912 12097,4912 C 12097,4914 12097,4915 12097,4916 12097,4943 12103,4964 12116,4986 12121,4994 12125,5001 12131,5007 L 12131,5007 C 12139,5015 12146,5020 12154,5025 12173,5036 12192,5041 12213,5041 12215,5041 12218,5041 12220,5041 L 12220,5041 C 12221,5041 12222,5041 12223,5041 12247,5041 12267,5039 12290,5033 L 12290,5033 C 12315,5027 12336,5021 12360,5010 L 12360,5083 C 12337,5094 12317,5101 12292,5106 L 12292,5106 C 12267,5111 12244,5112 12218,5112 12218,5112 12217,5112 12215,5112 Z M 12199,4740 C 12198,4740 12196,4740 12195,4740 12178,4740 12164,4743 12150,4751 12142,4756 12136,4761 12130,4767 12125,4773 12121,4779 12116,4786 12105,4805 12100,4824 12099,4847 L 12292,4847 12292,4847 C 12292,4844 12293,4842 12293,4840 12293,4818 12287,4800 12277,4781 12274,4776 12271,4772 12267,4766 L 12267,4766 C 12261,4760 12255,4755 12247,4751 12233,4743 12220,4740 12204,4740 12202,4740 12201,4740 12199,4740 Z"/>
      </g>
     </g>
     <g class="com.sun.star.drawing.PolyPolygonShape">
      <g id="id6">
       <rect class="BoundingBox" stroke="none" fill="none" x="12483" y="4505" width="93" height="601"/>
       <path fill="rgb(0,0,0)" stroke="none" d="M 12575,5104 L 12483,5104 12483,4506 12575,4506 12575,5104 Z"/>
      </g>
     </g>
     <g class="com.sun.star.drawing.ClosedBezierShape">
      <g id="id7">
       <rect class="BoundingBox" stroke="none" fill="none" x="12673" y="4670" width="363" height="444"/>
       <path fill="rgb(0,0,0)" stroke="none" d="M 12970,5104 L 12952,5045 12949,5045 C 12934,5066 12917,5081 12895,5094 12892,5095 12890,5097 12888,5098 12863,5108 12841,5112 12814,5112 12811,5112 12810,5112 12807,5112 12804,5112 12802,5112 12799,5112 12774,5112 12753,5107 12731,5094 12723,5090 12717,5085 12709,5079 12702,5070 12696,5063 12690,5054 12679,5033 12674,5014 12674,4990 12674,4987 12674,4985 12674,4983 L 12674,4983 C 12674,4980 12674,4979 12674,4976 12674,4955 12678,4938 12689,4920 12697,4904 12709,4893 12723,4883 12756,4861 12805,4848 12872,4847 L 12946,4844 12946,4822 C 12946,4819 12946,4817 12946,4814 12946,4798 12942,4785 12934,4771 12932,4767 12930,4764 12927,4760 L 12927,4760 C 12922,4755 12918,4753 12912,4750 12900,4742 12888,4739 12874,4739 12871,4739 12870,4739 12867,4739 12867,4739 12867,4739 12866,4739 12844,4739 12825,4742 12804,4749 12784,4756 12766,4763 12746,4772 L 12717,4708 12717,4708 C 12742,4694 12765,4686 12793,4680 L 12793,4680 C 12820,4673 12843,4671 12871,4671 12925,4671 12966,4682 12994,4706 13021,4730 13035,4767 13035,4817 L 13035,5105 12970,5104 Z M 12835,5043 C 12836,5043 12838,5043 12841,5043 12861,5043 12878,5039 12896,5028 12903,5024 12908,5021 12914,5015 L 12914,5015 C 12921,5009 12926,5002 12931,4994 12940,4978 12944,4962 12944,4944 12944,4942 12944,4940 12944,4938 L 12944,4901 12889,4904 C 12886,4904 12884,4904 12881,4904 12850,4904 12824,4910 12796,4924 12787,4930 12781,4937 12775,4946 12770,4956 12767,4966 12767,4978 12767,4980 12767,4981 12767,4983 12767,4984 12767,4985 12767,4986 12767,4997 12769,5005 12774,5014 12777,5019 12780,5023 12784,5026 12787,5029 12790,5031 12793,5033 12805,5040 12817,5043 12830,5043 12832,5043 12834,5043 12835,5043 L 12835,5043 Z"/>
      </g>
     </g>
     <g class="com.sun.star.drawing.ClosedBezierShape">
      <g id="id8">
       <rect class="BoundingBox" stroke="none" fill="none" x="13133" y="4670" width="316" height="444"/>
       <path fill="rgb(0,0,0)" stroke="none" d="M 13447,4983 C 13447,4985 13447,4987 13447,4989 13447,5009 13442,5026 13432,5044 13424,5058 13414,5069 13401,5079 13398,5080 13396,5082 13393,5083 13358,5104 13324,5112 13284,5112 13279,5112 13275,5112 13270,5112 L 13270,5112 C 13266,5112 13262,5112 13258,5112 13213,5112 13174,5104 13134,5086 L 13134,5008 13134,5008 C 13180,5031 13223,5041 13273,5043 13329,5043 13357,5026 13357,4993 L 13357,4993 C 13357,4992 13357,4991 13357,4991 13357,4984 13355,4977 13352,4971 13351,4969 13349,4967 13348,4965 L 13348,4965 C 13340,4957 13333,4951 13323,4946 13321,4945 13320,4944 13319,4943 L 13319,4943 C 13298,4933 13281,4925 13259,4917 L 13259,4917 C 13239,4911 13223,4904 13205,4893 13188,4883 13174,4873 13160,4860 L 13160,4860 C 13155,4855 13152,4850 13148,4843 13138,4826 13134,4810 13134,4790 13134,4789 13134,4787 13134,4786 L 13134,4786 C 13134,4785 13134,4783 13134,4782 13134,4765 13138,4750 13147,4734 13155,4720 13164,4710 13178,4701 13180,4700 13181,4700 13182,4698 13216,4679 13248,4671 13287,4671 13291,4671 13294,4671 13298,4671 L 13298,4671 C 13298,4671 13299,4671 13299,4671 13351,4671 13394,4680 13440,4701 L 13410,4769 C 13372,4752 13337,4743 13295,4741 13247,4741 13223,4755 13223,4782 L 13223,4782 C 13223,4789 13225,4796 13228,4802 13232,4808 13236,4812 13242,4816 L 13242,4816 C 13245,4818 13247,4819 13249,4821 13274,4835 13296,4845 13324,4854 L 13324,4854 C 13347,4862 13366,4871 13387,4883 13392,4886 13396,4888 13401,4891 L 13401,4891 C 13415,4901 13426,4912 13434,4928 13435,4929 13435,4929 13436,4930 L 13436,4930 C 13444,4946 13447,4961 13447,4979 13447,4980 13447,4982 13447,4983 Z"/>
      </g>
     </g>
     <g class="com.sun.star.drawing.ClosedBezierShape">
      <g id="id9">
       <rect class="BoundingBox" stroke="none" fill="none" x="13494" y="4582" width="277" height="531"/>
       <path fill="rgb(0,0,0)" stroke="none" d="M 13702,5039 L 13702,5039 C 13726,5039 13747,5036 13769,5029 L 13769,5097 C 13756,5102 13744,5105 13730,5108 13713,5111 13699,5112 13683,5112 13682,5112 13681,5112 13681,5112 13595,5112 13552,5067 13552,4976 L 13552,4747 13494,4747 13494,4706 13556,4673 13587,4583 13642,4583 13642,4678 13764,4678 13764,4746 13642,4746 13642,4974 C 13642,4976 13642,4977 13642,4979 13642,4991 13645,5001 13651,5011 13654,5015 13656,5019 13659,5022 L 13659,5022 C 13663,5026 13666,5029 13670,5031 13680,5036 13690,5039 13701,5039 13701,5039 13702,5039 13702,5039 Z"/>
      </g>
     </g>
     <g class="com.sun.star.drawing.ClosedBezierShape">
      <g id="id10">
       <rect class="BoundingBox" stroke="none" fill="none" x="13848" y="4515" width="104" height="591"/>
       <path fill="rgb(0,0,0)" stroke="none" d="M 13848,4567 C 13848,4565 13848,4564 13848,4563 13848,4554 13851,4546 13855,4538 13857,4535 13859,4532 13862,4529 13865,4527 13867,4525 13870,4523 13879,4518 13887,4516 13897,4516 13898,4516 13898,4516 13900,4516 13902,4516 13903,4516 13905,4516 13913,4516 13920,4518 13928,4522 13935,4526 13940,4532 13945,4539 13949,4546 13951,4553 13951,4562 13951,4564 13951,4565 13951,4567 13951,4568 13951,4569 13951,4570 13951,4579 13949,4586 13944,4593 13940,4601 13935,4606 13927,4610 13920,4614 13913,4617 13904,4617 13903,4617 13901,4617 13900,4616 13898,4617 13898,4617 13896,4617 13887,4617 13879,4614 13871,4610 13868,4608 13865,4605 13862,4603 L 13862,4603 C 13859,4600 13857,4597 13855,4594 13851,4586 13848,4578 13848,4569 13848,4568 13848,4568 13848,4567 Z M 13945,5105 L 13854,5105 13854,4678 13945,4678 13945,5105 Z"/>
      </g>
     </g>
     <g class="com.sun.star.drawing.ClosedBezierShape">
      <g id="id11">
       <rect class="BoundingBox" stroke="none" fill="none" x="14047" y="4671" width="329" height="443"/>
       <path fill="rgb(0,0,0)" stroke="none" d="M 14245,5112 C 14180,5112 14132,5093 14098,5055 14064,5018 14048,4964 14048,4894 14048,4823 14065,4767 14100,4729 14136,4692 14186,4672 14253,4672 14254,4672 14255,4672 14257,4672 14299,4672 14335,4679 14374,4697 L 14347,4769 C 14315,4756 14286,4749 14252,4747 14178,4747 14141,4796 14141,4894 L 14141,4894 C 14141,4898 14141,4902 14141,4907 14141,4939 14148,4966 14164,4994 14166,4997 14167,4999 14169,5001 L 14169,5001 C 14176,5011 14185,5019 14196,5025 14211,5034 14226,5038 14243,5038 14246,5038 14247,5037 14249,5037 L 14249,5037 14249,5037 C 14292,5037 14328,5028 14364,5007 14365,5007 14365,5007 14365,5007 L 14365,5085 C 14364,5086 14363,5086 14362,5087 14346,5096 14331,5102 14313,5106 L 14313,5106 C 14292,5110 14273,5112 14251,5112 14249,5112 14247,5112 14245,5112 Z"/>
      </g>
     </g>
     <g class="com.sun.star.drawing.ClosedBezierShape">
      <g id="id12">
       <rect class="BoundingBox" stroke="none" fill="none" x="14436" y="4670" width="315" height="444"/>
       <path fill="rgb(0,0,0)" stroke="none" d="M 14750,4983 L 14750,4983 C 14750,4985 14750,4987 14750,4989 14750,5009 14745,5027 14735,5045 14727,5059 14717,5069 14704,5079 L 14704,5079 C 14701,5080 14699,5082 14697,5083 14662,5104 14628,5112 14588,5112 14583,5112 14579,5112 14574,5112 L 14574,5112 C 14569,5112 14566,5112 14561,5112 14517,5112 14478,5104 14437,5086 L 14437,5008 C 14483,5031 14526,5041 14577,5043 14633,5043 14661,5026 14661,4993 L 14661,4993 C 14661,4992 14661,4991 14661,4991 14661,4984 14659,4977 14655,4971 14654,4969 14653,4967 14651,4965 L 14651,4965 C 14644,4958 14637,4952 14627,4947 14625,4946 14623,4944 14621,4943 L 14621,4943 C 14601,4933 14583,4925 14562,4917 L 14562,4917 C 14542,4911 14526,4904 14508,4893 14491,4883 14477,4873 14462,4860 L 14462,4860 C 14458,4855 14454,4850 14450,4843 14441,4826 14436,4810 14436,4790 14436,4789 14436,4787 14436,4786 14436,4785 14436,4784 14436,4782 14436,4765 14440,4749 14449,4734 14457,4720 14467,4710 14481,4701 14482,4700 14483,4700 14485,4698 14518,4679 14551,4671 14589,4671 14593,4671 14596,4671 14600,4671 L 14600,4671 C 14601,4671 14601,4671 14603,4671 14653,4671 14696,4680 14743,4701 L 14714,4769 14714,4769 C 14675,4752 14640,4743 14597,4741 14550,4741 14526,4755 14526,4782 14526,4789 14528,4796 14531,4802 14535,4808 14539,4812 14544,4816 14547,4818 14549,4819 14552,4821 14577,4835 14599,4845 14626,4854 L 14626,4854 C 14649,4862 14668,4871 14689,4883 14694,4886 14698,4888 14703,4891 L 14703,4891 C 14718,4901 14728,4913 14738,4928 14738,4929 14738,4930 14739,4930 L 14739,4930 C 14746,4947 14750,4962 14750,4979 14750,4980 14750,4982 14750,4983 Z"/>
      </g>
     </g>
     <g class="com.sun.star.drawing.ClosedBezierShape">
      <g id="id13">
       <rect class="BoundingBox" stroke="none" fill="none" x="14820" y="4670" width="381" height="444"/>
       <path fill="rgb(0,0,0)" stroke="none" d="M 15032,5112 L 15032,5112 C 15028,5112 15025,5112 15020,5112 14982,5112 14950,5104 14918,5084 14902,5076 14890,5066 14877,5054 L 14877,5054 C 14866,5042 14859,5031 14850,5017 14830,4982 14821,4947 14821,4907 14821,4903 14821,4899 14821,4895 14821,4825 14839,4771 14873,4730 L 14873,4730 C 14886,4715 14900,4705 14917,4694 14946,4678 14974,4671 15007,4671 15010,4671 15014,4671 15017,4671 L 15017,4671 C 15020,4671 15023,4671 15026,4671 15059,4671 15086,4678 15114,4694 15128,4702 15139,4711 15150,4722 15160,4732 15167,4742 15173,4754 15191,4785 15200,4816 15200,4852 15200,4856 15199,4859 15199,4863 L 15199,4912 14914,4912 14914,4912 C 14914,4914 14914,4915 14914,4916 14914,4942 14920,4964 14933,4986 14938,4994 14942,5000 14948,5007 14955,5015 14962,5020 14971,5025 14990,5036 15008,5041 15029,5041 15032,5041 15034,5041 15037,5040 L 15037,5040 C 15038,5040 15039,5040 15040,5040 15064,5040 15084,5039 15107,5033 15132,5027 15153,5021 15177,5009 L 15177,5083 C 15155,5094 15135,5101 15110,5105 15085,5110 15064,5112 15039,5112 15036,5112 15035,5112 15032,5112 Z M 15016,4739 C 15014,4739 15013,4739 15012,4739 14995,4739 14981,4743 14967,4751 14959,4755 14953,4760 14947,4766 14942,4773 14938,4779 14933,4786 14922,4805 14917,4824 14916,4846 L 15109,4846 15109,4846 C 15109,4844 15110,4842 15110,4840 15110,4818 15105,4800 15093,4780 15091,4775 15088,4771 15084,4766 L 15084,4766 C 15078,4760 15072,4755 15064,4751 15050,4743 15036,4739 15021,4739 15019,4739 15018,4739 15016,4739 Z"/>
      </g>
     </g>
     <g class="com.sun.star.drawing.ClosedBezierShape">
      <g id="id14">
       <rect class="BoundingBox" stroke="none" fill="none" x="15270" y="4670" width="364" height="444"/>
       <path fill="rgb(0,0,0)" stroke="none" d="M 15567,5104 L 15549,5045 15546,5045 C 15531,5066 15515,5081 15492,5094 15489,5095 15487,5097 15485,5098 L 15485,5098 C 15460,5108 15438,5112 15412,5112 15409,5112 15407,5112 15405,5112 L 15405,5112 C 15402,5112 15399,5112 15396,5112 15371,5112 15350,5107 15328,5094 15320,5090 15314,5085 15306,5079 15299,5070 15294,5063 15288,5054 15276,5033 15271,5014 15271,4990 15271,4987 15271,4985 15271,4983 L 15271,4983 C 15271,4980 15271,4979 15271,4976 15271,4955 15275,4938 15286,4920 15295,4904 15306,4893 15320,4883 15353,4861 15402,4848 15469,4847 L 15543,4844 15543,4822 C 15543,4819 15543,4817 15543,4814 15543,4798 15540,4785 15531,4771 15529,4767 15527,4764 15524,4760 L 15524,4760 C 15519,4755 15515,4753 15509,4750 15497,4742 15485,4739 15471,4739 15469,4739 15467,4739 15464,4739 15464,4739 15464,4739 15463,4739 15441,4739 15423,4742 15402,4749 L 15402,4749 C 15381,4756 15363,4763 15344,4772 L 15314,4708 C 15339,4694 15362,4686 15390,4680 L 15390,4680 C 15417,4673 15440,4671 15468,4671 15523,4671 15564,4682 15591,4706 15619,4730 15633,4767 15633,4817 L 15633,5105 15567,5104 Z M 15433,5043 C 15435,5043 15436,5043 15438,5043 15459,5043 15476,5039 15494,5028 15501,5024 15506,5021 15512,5015 L 15512,5015 C 15519,5009 15524,5002 15528,4994 15538,4978 15542,4962 15542,4944 15542,4942 15542,4940 15542,4938 L 15542,4901 15487,4904 C 15484,4904 15482,4904 15479,4904 15448,4904 15421,4910 15394,4924 15385,4930 15378,4937 15373,4946 15367,4956 15364,4966 15364,4978 15364,4980 15364,4981 15365,4983 15364,4984 15364,4985 15364,4986 15364,4997 15367,5005 15372,5014 15375,5019 15378,5023 15381,5026 15385,5029 15388,5031 15391,5033 15403,5040 15414,5043 15428,5043 15430,5043 15431,5043 15433,5043 Z"/>
      </g>
     </g>
     <g class="com.sun.star.drawing.ClosedBezierShape">
      <g id="id15">
       <rect class="BoundingBox" stroke="none" fill="none" x="15758" y="4670" width="262" height="436"/>
       <path fill="rgb(0,0,0)" stroke="none" d="M 15974,4671 L 15974,4671 C 15976,4671 15977,4671 15979,4671 15993,4671 16005,4672 16019,4675 L 16010,4759 C 15997,4755 15985,4754 15971,4754 15970,4754 15970,4754 15970,4754 15969,4754 15968,4754 15966,4754 15945,4754 15926,4759 15908,4769 15898,4775 15891,4782 15883,4790 15876,4797 15871,4804 15866,4812 15854,4833 15849,4853 15849,4876 15849,4878 15849,4880 15849,4882 L 15849,5104 15758,5104 15758,4679 15829,4679 15841,4753 15846,4753 C 15847,4752 15848,4751 15849,4749 15862,4725 15879,4708 15901,4693 L 15901,4693 C 15904,4691 15906,4690 15909,4688 15930,4676 15950,4671 15974,4671 Z"/>
      </g>
     </g>
     <g class="com.sun.star.drawing.ClosedBezierShape">
      <g id="id16">
       <rect class="BoundingBox" stroke="none" fill="none" x="16072" y="4671" width="328" height="443"/>
       <path fill="rgb(0,0,0)" stroke="none" d="M 16269,5112 C 16205,5112 16156,5093 16123,5055 16089,5018 16072,4964 16072,4894 16072,4822 16090,4767 16125,4729 16160,4691 16211,4672 16277,4672 16279,4672 16280,4672 16281,4672 16323,4672 16360,4679 16398,4697 L 16371,4769 C 16339,4756 16311,4749 16276,4747 16202,4747 16165,4796 16165,4894 16165,4898 16165,4902 16165,4907 16165,4939 16172,4966 16189,4994 16190,4997 16191,4999 16193,5001 L 16193,5001 C 16201,5011 16209,5019 16220,5025 16235,5034 16250,5038 16268,5038 16270,5038 16272,5037 16274,5037 L 16274,5037 16275,5037 C 16316,5037 16352,5028 16389,5008 L 16389,5086 16389,5086 C 16387,5087 16387,5087 16386,5087 16370,5097 16355,5103 16336,5107 16316,5111 16300,5112 16279,5112 16276,5112 16273,5112 16269,5112 Z"/>
      </g>
     </g>
     <g class="com.sun.star.drawing.ClosedBezierShape">
      <g id="id17">
       <rect class="BoundingBox" stroke="none" fill="none" x="16486" y="4505" width="379" height="601"/>
       <path fill="rgb(0,0,0)" stroke="none" d="M 16863,5104 L 16771,5104 16771,4843 C 16772,4840 16772,4837 16772,4835 16772,4814 16767,4796 16757,4778 16754,4775 16753,4772 16751,4769 16746,4764 16740,4759 16733,4755 16721,4748 16709,4745 16695,4745 16693,4745 16690,4745 16688,4745 L 16688,4745 C 16685,4745 16683,4744 16680,4744 16661,4744 16646,4749 16630,4758 16619,4764 16612,4771 16604,4779 16586,4802 16578,4840 16578,4893 L 16578,5104 16487,5104 16487,4506 16578,4506 16578,4657 16578,4657 C 16578,4685 16576,4708 16573,4736 L 16580,4736 C 16592,4717 16605,4703 16625,4692 16628,4690 16629,4689 16632,4688 L 16632,4688 C 16656,4676 16678,4671 16705,4671 16706,4671 16707,4671 16708,4671 16812,4671 16863,4723 16863,4827 L 16863,5104 Z"/>
      </g>
     </g>
     <g class="com.sun.star.drawing.ClosedBezierShape">
      <g id="id18">
       <rect class="BoundingBox" stroke="none" fill="none" x="14798" y="3320" width="1253" height="421"/>
       <path fill="rgb(52,55,65)" stroke="none" d="M 14799,3531 L 14799,3531 C 14800,3604 14808,3667 14827,3739 L 15841,3739 15841,3739 C 15879,3739 15912,3731 15945,3711 15978,3692 16002,3668 16021,3634 16040,3601 16049,3568 16049,3531 L 16049,3531 16049,3531 16049,3531 C 16049,3492 16040,3459 16021,3426 16002,3392 15978,3368 15945,3349 15912,3329 15879,3321 15841,3321 L 14828,3321 14828,3321 C 14809,3393 14800,3456 14799,3531 Z"/>
      </g>
     </g>
     <g class="com.sun.star.drawing.ClosedBezierShape">
      <g id="id19">
       <rect class="BoundingBox" stroke="none" fill="none" x="14885" y="2692" width="1401" height="473"/>
       <path fill="rgb(254,197,20)" stroke="none" d="M 16203,3094 L 16203,3094 C 16233,3066 16257,3040 16284,3007 L 16284,3007 C 16215,2922 16144,2860 16049,2805 15917,2728 15787,2693 15634,2693 15482,2693 15351,2728 15219,2805 15086,2882 14991,2978 14914,3111 14904,3129 14895,3145 14886,3164 L 16025,3164 16025,3164 C 16073,3164 16114,3152 16155,3129 16173,3118 16187,3108 16203,3094 Z"/>
      </g>
     </g>
     <g class="com.sun.star.drawing.ClosedBezierShape">
      <g id="id20">
       <rect class="BoundingBox" stroke="none" fill="none" x="14885" y="3896" width="1401" height="473"/>
       <path fill="rgb(0,191,179)" stroke="none" d="M 16025,3896 L 14886,3896 14886,3896 C 14895,3915 14904,3931 14914,3949 14991,4082 15086,4178 15219,4255 15351,4332 15482,4367 15634,4367 15787,4367 15917,4332 16049,4255 16144,4200 16215,4138 16284,4053 L 16284,4053 C 16257,4020 16233,3994 16203,3966 L 16203,3966 C 16187,3952 16173,3942 16155,3931 16114,3908 16073,3896 16025,3896 Z"/>
      </g>
     </g>
    </g>
   </g>
  </g>
 </g>
</svg>